<svg width="19" height="20" viewBox="0 0 19 20" fill="none" xmlns="http://www.w3.org/2000/svg">
<path d="M4.21053 5.26318H0V20H4.21053V5.26318Z" fill="#5E5E5E"/>
<path d="M14.2095 5.26318C11.2716 5.26318 10.7663 6.33476 10.5263 7.36845V5.26318H6.3158V20H10.5263V11.579C10.5263 10.2137 11.2663 9.47371 12.6316 9.47371C13.9642 9.47371 14.7368 10.1979 14.7368 11.579V20H18.9474V12.6316C18.9474 8.42108 18.399 5.26318 14.2095 5.26318Z" fill="#5E5E5E"/>
<path d="M2.10526 4.21053C3.26797 4.21053 4.21053 3.26797 4.21053 2.10526C4.21053 0.942558 3.26797 0 2.10526 0C0.942558 0 0 0.942558 0 2.10526C0 3.26797 0.942558 4.21053 2.10526 4.21053Z" fill="#5E5E5E"/>
</svg>
