<svg width="19" height="15" viewBox="0 0 19 15" fill="none" xmlns="http://www.w3.org/2000/svg">
<path d="M18.9422 1.73554C18.2785 2.02924 17.569 2.22759 16.8214 2.31914C17.5843 1.86141 18.1717 1.13668 18.4463 0.274634C17.733 0.698029 16.9435 1.00699 16.1005 1.17101C15.4254 0.450095 14.4641 0 13.4037 0C11.3631 0 9.71143 1.65544 9.71143 3.69612C9.71143 3.98601 9.74195 4.26828 9.80679 4.5391C6.73622 4.38652 4.01277 2.91418 2.19331 0.675143C1.87672 1.2206 1.69363 1.8576 1.69363 2.53274C1.69363 3.81437 2.34589 4.94724 3.33762 5.61093C2.73114 5.59568 2.15898 5.42785 1.66312 5.1494C1.66312 5.16465 1.66312 5.17991 1.66312 5.19517C1.66312 6.98792 2.93711 8.47934 4.62688 8.81882C4.31791 8.90273 3.98988 8.94851 3.65422 8.94851C3.41772 8.94851 3.18505 8.92562 2.96 8.87985C3.42917 10.3484 4.79471 11.4164 6.412 11.4469C5.14945 12.4387 3.55504 13.0299 1.82332 13.0299C1.5258 13.0299 1.23209 13.0108 0.9422 12.9765C2.57475 14.0369 4.51626 14.6472 6.59891 14.6472C13.3961 14.6472 17.1113 9.01335 17.1113 4.12715C17.1113 3.96694 17.1075 3.80674 17.0999 3.65035C17.8208 3.12778 18.4463 2.47552 18.9422 1.73554Z" fill="#67B1E2"/>
</svg>
