<svg width="4" height="16" viewBox="0 0 4 16" fill="none" xmlns="http://www.w3.org/2000/svg">
<path d="M1.86047 3.72093C2.88797 3.72093 3.72093 2.88797 3.72093 1.86047C3.72093 0.832959 2.88797 0 1.86047 0C0.832959 0 0 0.832959 0 1.86047C0 2.88797 0.832959 3.72093 1.86047 3.72093Z" fill="#B1B3B8"/>
<path d="M1.86047 9.67454C2.88797 9.67454 3.72093 8.84158 3.72093 7.81408C3.72093 6.78657 2.88797 5.95361 1.86047 5.95361C0.832959 5.95361 0 6.78657 0 7.81408C0 8.84158 0.832959 9.67454 1.86047 9.67454Z" fill="#B1B3B8"/>
<path d="M1.86047 16C2.88797 16 3.72093 15.167 3.72093 14.1395C3.72093 13.112 2.88797 12.2791 1.86047 12.2791C0.832959 12.2791 0 13.112 0 14.1395C0 15.167 0.832959 16 1.86047 16Z" fill="#B1B3B8"/>
</svg>
