<svg width="22" height="22" viewBox="0 0 22 22" fill="none" xmlns="http://www.w3.org/2000/svg">
<path d="M22.0006 11.0074C22.0006 11.6111 21.953 12.2147 21.8577 12.8024H17.2511C17.2511 12.7865 17.2669 12.7707 17.2669 12.7548C17.2987 12.6436 17.3305 12.5324 17.3464 12.4212C17.3464 12.3894 17.3622 12.3576 17.3622 12.31C17.394 12.1829 17.4099 12.0558 17.4258 11.9129C17.4258 11.897 17.4258 11.8811 17.4258 11.8652C17.4417 11.7381 17.4576 11.6269 17.4576 11.4999C17.4576 11.4681 17.4576 11.4204 17.4576 11.3887C17.4734 11.2457 17.4734 11.1186 17.4734 10.9757C17.4734 10.8327 17.4734 10.7056 17.4576 10.5627C17.4576 10.5309 17.4576 10.4832 17.4576 10.4515C17.4417 10.3244 17.4417 10.2132 17.4258 10.0861C17.4258 10.0702 17.4258 10.0543 17.4258 10.0543C17.4099 9.92727 17.3781 9.7843 17.3622 9.65722C17.3622 9.62545 17.3464 9.59369 17.3464 9.56192C17.3146 9.45072 17.2987 9.32364 17.2511 9.21245C17.2511 9.19656 17.2511 9.18068 17.2352 9.16479H21.8418C21.953 9.80019 22.0006 10.4038 22.0006 11.0074Z" fill="#F4FFED"/>
<path d="M12.7866 17.2502V21.8568C11.5953 22.0475 10.3721 22.0475 9.18079 21.8568V17.2502C9.19667 17.2502 9.21256 17.2502 9.22844 17.2661C9.33963 17.2979 9.45083 17.3297 9.57791 17.3456C9.60968 17.3456 9.62556 17.3614 9.65733 17.3614C9.92737 17.425 10.2133 17.4567 10.4992 17.4726C10.5151 17.4726 10.531 17.4726 10.5469 17.4726C10.6898 17.4885 10.8328 17.4885 10.9758 17.4885C11.1187 17.4885 11.2617 17.4885 11.4047 17.4726C11.4205 17.4726 11.4364 17.4726 11.4523 17.4726C11.7382 17.4567 12.0242 17.4091 12.2942 17.3614C12.326 17.3614 12.3419 17.3456 12.3736 17.3456C12.5007 17.3138 12.6119 17.2979 12.7231 17.2502C12.7708 17.2661 12.7708 17.2661 12.7866 17.2502Z" fill="#F4FFED"/>
<path d="M4.73368 12.7712C4.73368 12.7871 4.73368 12.803 4.74956 12.8188H0.142964C0.0476547 12.2311 0 11.6275 0 11.0239C0 10.4202 0.0476547 9.81662 0.142964 9.22888H4.74956C4.74956 9.24477 4.73368 9.26065 4.73368 9.27654C4.70191 9.38773 4.67014 9.49892 4.65425 9.61012C4.65425 9.64189 4.63837 9.67366 4.63837 9.70543C4.6066 9.8325 4.59071 9.95958 4.57483 10.1025C4.57483 10.1184 4.57483 10.1343 4.57483 10.1502C4.55894 10.2773 4.54306 10.3885 4.54306 10.5156C4.54306 10.5473 4.54306 10.5791 4.54306 10.6267C4.52717 10.7538 4.52717 10.8968 4.52717 11.0397C4.52717 11.1827 4.52717 11.3098 4.54306 11.4528C4.54306 11.4845 4.54306 11.5163 4.54306 11.5639C4.55894 11.691 4.55894 11.8022 4.57483 11.9293C4.57483 11.9452 4.57483 11.9611 4.57483 11.977C4.59071 12.104 4.62248 12.247 4.63837 12.3741C4.63837 12.4058 4.65425 12.4376 4.65425 12.4694C4.67014 12.5329 4.70191 12.6441 4.73368 12.7712Z" fill="#F4FFED"/>
<path d="M12.7856 0.142963V4.74956C12.7697 4.74956 12.7538 4.73368 12.7379 4.73368C12.6267 4.70191 12.5155 4.67014 12.4043 4.65425C12.3726 4.65425 12.3408 4.63837 12.309 4.63837C12.1819 4.6066 12.039 4.59071 11.9119 4.57483C11.896 4.57483 11.8801 4.57483 11.8642 4.57483C11.7372 4.55894 11.626 4.54306 11.4989 4.54306C11.4671 4.54306 11.4354 4.54306 11.3877 4.54306C11.2447 4.52717 11.1177 4.52717 10.9747 4.52717C10.8317 4.52717 10.7046 4.52717 10.5617 4.54306C10.5299 4.54306 10.4981 4.54306 10.4505 4.54306C10.3234 4.55894 10.2122 4.55894 10.0851 4.57483C10.0693 4.57483 10.0534 4.57483 10.0375 4.57483C9.89452 4.59071 9.76744 4.62248 9.64036 4.63837C9.60859 4.63837 9.57682 4.65425 9.54506 4.65425C9.43386 4.68602 9.32267 4.70191 9.21147 4.73368C9.19559 4.73368 9.1797 4.73367 9.16382 4.74956V0.142963C10.387 -0.0476544 11.5942 -0.0476544 12.7856 0.142963Z" fill="#F4FFED"/>
<path d="M21.6665 8.29167H16.917C16.8375 8.13282 16.7581 7.97397 16.6787 7.83101C16.6628 7.81512 16.6469 7.78335 16.6469 7.76747C16.5675 7.6245 16.4722 7.48154 16.3769 7.33858C16.361 7.32269 16.3451 7.29092 16.3292 7.25915C16.2339 7.11619 16.1227 6.98911 16.0274 6.86203C16.0115 6.84615 15.9956 6.83026 15.9798 6.81438C15.7415 6.54434 15.5032 6.29018 15.2173 6.05191C15.2014 6.03602 15.1855 6.02014 15.1696 6.00425C15.0426 5.89306 14.8996 5.79775 14.7566 5.68656C14.7407 5.67067 14.709 5.65479 14.6931 5.6389C14.5501 5.54359 14.4072 5.44828 14.2642 5.36886C14.2483 5.35298 14.2165 5.35298 14.2007 5.33709C14.0418 5.25767 13.883 5.16236 13.7241 5.09882V0.333374C17.6318 1.33412 20.6658 4.36812 21.6665 8.29167Z" fill="#F4FFED"/>
<path d="M21.6655 13.7081C20.6806 17.6317 17.6307 20.6816 13.7072 21.6664V16.901C13.866 16.8216 14.0249 16.7421 14.1678 16.6627C14.1837 16.6468 14.2155 16.6309 14.2314 16.6151C14.3743 16.5356 14.5173 16.4403 14.6602 16.345C14.692 16.3291 14.7079 16.3132 14.7397 16.2974C14.8826 16.202 15.0097 16.0909 15.1368 15.9955C15.1527 15.9797 15.1686 15.9638 15.1844 15.9479C15.4545 15.7255 15.7086 15.4713 15.931 15.2013C15.9469 15.1854 15.9628 15.1695 15.9787 15.1536C16.0899 15.0266 16.1852 14.8836 16.2964 14.7565C16.3123 14.7406 16.3281 14.7089 16.344 14.693C16.4393 14.55 16.5347 14.4071 16.6141 14.2641C16.63 14.2482 16.6458 14.2164 16.6458 14.2006C16.7253 14.0417 16.8206 13.8987 16.8841 13.724H21.6655V13.7081Z" fill="#F4FFED"/>
<path d="M8.27476 16.9179V21.6834C4.35121 20.6985 1.30133 17.6486 0.316467 13.7251H5.06603C5.14545 13.8839 5.22487 14.0428 5.3043 14.1858C5.32018 14.2175 5.33607 14.2334 5.35195 14.2652C5.43138 14.4081 5.52669 14.5511 5.62199 14.6941C5.63788 14.7258 5.65376 14.7417 5.66965 14.7735C5.76496 14.9165 5.87615 15.0435 5.97146 15.1706C5.98735 15.1865 6.00323 15.2024 6.01911 15.2183C6.25739 15.4883 6.49566 15.7425 6.7657 15.9649C6.78159 15.9807 6.79747 15.9966 6.81336 16.0125C6.94043 16.1237 7.0834 16.219 7.22636 16.3302C7.24225 16.3461 7.27402 16.362 7.2899 16.3779C7.43286 16.4732 7.57583 16.5685 7.71879 16.6479C7.73468 16.6638 7.76645 16.6638 7.78233 16.6797C7.95706 16.7591 8.11591 16.8385 8.27476 16.9179Z" fill="#F4FFED"/>
<path d="M8.27476 0.333374V5.09882C8.11591 5.17824 7.95706 5.25767 7.8141 5.33709C7.79821 5.35298 7.76644 5.36886 7.75056 5.38474C7.6076 5.46417 7.46463 5.55948 7.32167 5.65479C7.2899 5.67067 7.27402 5.68656 7.24225 5.70244C7.09928 5.79775 6.9722 5.90894 6.84513 6.00425C6.82924 6.02014 6.81336 6.03602 6.79747 6.05191C6.52743 6.29018 6.27327 6.52845 6.035 6.81438C6.01912 6.83026 6.00323 6.84615 5.98735 6.86203C5.87615 6.98911 5.76496 7.13207 5.66965 7.27504C5.65376 7.29092 5.63788 7.32269 5.62199 7.33858C5.52669 7.48154 5.43138 7.6245 5.35195 7.76747C5.33607 7.78335 5.33607 7.81512 5.32018 7.83101C5.22488 7.98985 5.14545 8.1487 5.08191 8.30755H0.316467C1.31721 4.36812 4.36709 1.33412 8.27476 0.333374Z" fill="#F4FFED"/>
</svg>
