<svg width="24" height="22" viewBox="0 0 24 22" fill="none" xmlns="http://www.w3.org/2000/svg">
<path d="M2.38034 9.46151C1.78899 9.81901 1.01836 9.62986 0.660785 9.03864C0.303206 8.44743 0.492396 7.67697 1.08374 7.31947L11.351 1.10081C11.7685 0.848285 12.2752 0.868587 12.6625 1.10973L17.7667 4.20148L22.901 7.21548C23.4978 7.56506 23.6974 8.33305 23.3478 8.92971C22.9981 9.52637 22.23 9.72592 21.6332 9.37634C18.3961 7.47544 15.2096 5.57999 11.9993 3.63551L2.38034 9.46151Z" fill="#74BD43"/>
<path fill-rule="evenodd" clip-rule="evenodd" d="M20.6789 10.2742C20.8012 10.346 20.8763 10.4772 20.8763 10.6191V20.6107C20.8763 20.8316 20.6972 21.0107 20.4763 21.0107H14.6031C14.3822 21.0107 14.2031 20.8316 14.2031 20.6107V14.1151C14.2031 13.8942 14.024 13.7151 13.8031 13.7151H10.1953C9.97438 13.7151 9.79529 13.8942 9.79529 14.1151V20.6107C9.79529 20.8316 9.61621 21.0107 9.39529 21.0107H3.52262C3.30171 21.0107 3.12262 20.8316 3.12262 20.6107V10.7071C3.12262 10.5672 3.19572 10.4375 3.31539 10.365L11.7927 5.23023C11.92 5.15315 12.0795 5.15308 12.2068 5.22999C15.0204 6.92893 17.8451 8.60859 20.6789 10.2742Z" fill="#74BD43"/>
</svg>
