<svg width="24" height="18" viewBox="0 0 24 18" fill="none" xmlns="http://www.w3.org/2000/svg">
<path d="M21.4439 0.0800171L2.55552 0.0803062C1.41119 0.0803062 0.47998 1.01074 0.47998 2.15441V15.8459C0.47998 16.9899 1.41119 17.92 2.55581 17.92H21.4439C22.5882 17.92 23.52 16.9896 23.52 15.8459V2.15441C23.5194 1.01074 22.5885 0.0800171 21.4439 0.0800171ZM11.9994 15.0716C8.64894 15.0716 5.92248 12.3483 5.92248 9.00031C5.92248 5.65235 8.64865 2.92816 11.9997 2.92816C15.3501 2.92816 18.0766 5.65235 18.0766 9.00031C18.0766 12.348 15.3507 15.0722 11.9994 15.0716ZM12.1086 6.53621C12.3776 6.53621 12.5921 6.63197 12.752 6.82437C12.9144 7.01676 12.9923 7.30666 12.9923 7.69636H14.3955C14.3955 7.06421 14.233 6.55299 13.909 6.15721C13.5862 5.76085 13.1379 5.52274 12.5649 5.44144V4.38776H11.7872V5.42524C11.208 5.4831 10.7436 5.68736 10.3941 6.03598C10.0443 6.38548 9.86913 6.83305 9.86913 7.37927C9.86913 7.6981 9.92068 7.96919 10.0212 8.1989C10.1237 8.42862 10.2652 8.62796 10.4494 8.79779C10.6333 8.96761 10.8522 9.11748 11.107 9.24998C11.3627 9.37931 11.6667 9.51066 12.0191 9.64345C12.3721 9.77567 12.6208 9.92062 12.769 10.0771C12.9158 10.2342 12.99 10.4449 12.99 10.7102C12.99 10.9656 12.9072 11.1681 12.7427 11.3189C12.5785 11.4696 12.3506 11.5443 12.0686 11.5443C11.7246 11.5445 11.4614 11.4415 11.2784 11.2361C11.0957 11.0313 11.0059 10.7362 11.0059 10.3511L9.60158 10.3514C9.60158 11.0142 9.78401 11.5448 10.1491 11.9441C10.514 12.3433 11.0256 12.5783 11.6887 12.6494L11.689 13.6079L12.4604 13.6076V12.6428C13.0621 12.5814 13.534 12.3789 13.878 12.0364C14.2215 11.6927 14.3914 11.2471 14.3914 10.698C14.3914 10.4041 14.346 10.1466 14.255 9.92496C14.1644 9.70218 14.0324 9.50661 13.863 9.3336C13.691 9.15885 13.4828 9.00378 13.2312 8.86809C12.983 8.73009 12.6642 8.58485 12.2777 8.42891C11.8908 8.27384 11.6267 8.12137 11.484 7.97324C11.3438 7.82279 11.2726 7.62722 11.2726 7.38188C11.2726 7.11687 11.3456 6.90798 11.4915 6.75869C11.6383 6.61172 11.8433 6.53621 12.1086 6.53621Z" fill="#F4FFED"/>
</svg>
