<svg width="20" height="22" viewBox="0 0 20 22" fill="none" xmlns="http://www.w3.org/2000/svg">
<path d="M16.5147 0C15.7722 7.96019e-06 15.0601 0.295015 14.535 0.820051C14.01 1.34509 13.715 2.05717 13.715 2.79968C13.7164 3.00714 13.7409 3.21377 13.788 3.41582L8.25428 7.5788C7.42388 6.90336 6.38651 6.53401 5.3161 6.53259C4.07858 6.53259 2.89175 7.02429 2.01669 7.89934C1.14164 8.7744 0.65003 9.96122 0.650024 11.1987C0.65003 12.4362 1.14164 13.6231 2.01669 14.4981C2.89175 15.3732 4.07858 15.8647 5.3161 15.8647C6.49789 15.8636 7.63525 15.4142 8.49852 14.6071L13.788 18.5878C13.7438 18.7853 13.715 18.9896 13.715 19.2003C13.7151 20.7466 14.9685 22 16.5147 22C18.0609 22 19.3143 20.7466 19.3143 19.2003C19.3143 17.6542 18.0609 16.4006 16.5147 16.4006C15.8615 16.4006 15.2703 16.6345 14.7941 17.0095L9.58119 13.0834C9.84454 12.4899 9.98112 11.848 9.98219 11.1987C9.9819 10.4402 9.79672 9.69327 9.44267 9.02248L14.7868 5.00164C15.2796 5.38866 15.8881 5.5991 16.5147 5.59937C17.2572 5.59936 17.9693 5.30435 18.4943 4.77931C19.0194 4.25428 19.3143 3.54219 19.3143 2.79968C19.3143 2.05717 19.0194 1.34509 18.4943 0.820051C17.9693 0.295015 17.2572 7.96019e-06 16.5147 0H16.5147Z" fill="#F4FFED"/>
</svg>
