<svg width="16" height="14" viewBox="0 0 16 14" fill="none" xmlns="http://www.w3.org/2000/svg">
<path d="M15.8938 0.667367C15.7045 0.255786 15.3038 0 14.8486 0H1.15154C0.696153 0 0.295618 0.255786 0.106112 0.667367C-0.0818706 1.07552 -0.0169242 1.54138 0.275811 1.88344C0.276001 1.88364 0.276382 1.88402 0.276572 1.88421L5.71455 8.21105V13.1416C5.71455 13.3523 5.83053 13.546 6.01642 13.6456C6.1006 13.6907 6.19355 13.713 6.28592 13.713C6.39677 13.713 6.50723 13.6806 6.60284 13.617L10.0311 11.3315C10.1901 11.2254 10.2856 11.0472 10.2856 10.8561V8.21105L15.7243 1.88344C16.0168 1.54138 16.082 1.07552 15.8938 0.667367Z" fill="#C2C2C2"/>
</svg>
