<svg width="95" height="95" viewBox="0 0 95 95" fill="none" xmlns="http://www.w3.org/2000/svg">
<g clip-path="url(#clip0)">
<path d="M39.904 5.82833C38.5255 6.05289 37.171 5.20557 36.8641 3.843C36.5571 2.48042 37.4124 1.11984 38.7893 0.885383C50.1718 -1.05283 61.7133 1.24804 71.5464 7.46525C81.3797 13.6826 88.4074 23.1229 91.5371 34.2374C91.9157 35.5818 91.0532 36.9379 89.6907 37.2448C88.3281 37.5518 86.9818 36.6914 86.5936 35.3498C80.7558 15.175 60.6333 2.45163 39.904 5.82833Z" fill="#74BD43"/>
<path d="M51.8167 89.5464C50.4306 89.718 49.3686 90.9116 49.4566 92.3055C49.5446 93.6995 50.7475 94.7651 52.1349 94.6035C63.6036 93.2674 74.0347 87.8181 81.7262 79.0898C89.4179 70.3613 93.5119 59.3274 93.3946 47.7813C93.3804 46.3846 92.1719 45.3253 90.7779 45.4134C89.384 45.5014 88.3335 46.7051 88.3377 48.1018C88.4001 69.1042 72.6601 86.9662 51.8167 89.5464Z" fill="#74BD43"/>
<path d="M6.71273 59.5038C6.33394 58.1595 4.99379 57.2897 3.62909 57.5871C2.26438 57.8844 1.39244 59.2344 1.76156 60.5814C4.81294 71.7173 11.7738 81.2066 21.5628 87.493C31.352 93.7796 42.8773 96.1618 54.2735 94.3036C55.652 94.0788 56.5168 92.7243 56.2195 91.3596C55.9221 89.9949 54.5736 89.1381 53.1935 89.3529C32.4411 92.5837 12.4085 79.7192 6.71273 59.5038Z" fill="#74BD43"/>
<path d="M5.43815 42.4739C5.62222 41.0893 4.73556 39.7603 3.36458 39.4934C1.99358 39.2265 0.658656 40.1213 0.464654 41.5045C-1.13914 52.9389 1.49898 64.4081 8.0017 74.0547C14.5046 83.7016 24.1468 90.4496 35.3482 93.2522C36.7031 93.5912 38.0333 92.6894 38.3002 91.3184C38.5671 89.9474 37.6677 88.627 36.3152 88.2783C15.978 83.0342 2.67041 63.2932 5.43815 42.4739Z" fill="#74BD43"/>
<path d="M5.07357 30.4566C3.90182 29.8552 3.38201 28.4511 3.94653 27.2611C8.56618 17.5233 16.2846 9.7969 26.012 5.16855C27.2733 4.56845 28.7555 5.18959 29.288 6.4808C29.8206 7.772 29.2009 9.24367 27.944 9.85279C19.2447 14.0686 12.6123 21.0008 8.65269 29.1924C8.00657 30.5292 6.39443 31.1345 5.07357 30.4566Z" fill="#74BD43"/>
</g>
<defs>
<clipPath id="clip0">
<rect width="95.0108" height="94.2446" fill="white" transform="translate(81.8202 -9.2002) rotate(77.3048)"/>
</clipPath>
</defs>
</svg>
