<svg width="95" height="75" viewBox="0 0 95 75" fill="none" xmlns="http://www.w3.org/2000/svg">
<path d="M51.8167 69.5464C50.4306 69.718 49.3686 70.9116 49.4566 72.3055C49.5446 73.6995 50.7475 74.7651 52.1349 74.6035C63.6036 73.2674 74.0347 67.8181 81.7262 59.0898C89.4179 50.3613 93.5119 39.3274 93.3946 27.7813C93.3804 26.3846 92.1719 25.3253 90.7779 25.4134C89.384 25.5014 88.3335 26.7051 88.3377 28.1018C88.4001 49.1042 72.6601 66.9662 51.8167 69.5464Z" fill="#74BD43"/>
<path d="M6.71273 39.5038C6.33394 38.1595 4.99379 37.2897 3.62909 37.5871C2.26438 37.8844 1.39244 39.2344 1.76156 40.5814C4.81294 51.7173 11.7738 61.2066 21.5628 67.493C31.352 73.7796 42.8773 76.1618 54.2735 74.3036C55.652 74.0788 56.5168 72.7243 56.2195 71.3596C55.9221 69.9949 54.5736 69.1381 53.1935 69.3529C32.4411 72.5837 12.4085 59.7192 6.71273 39.5038Z" fill="#74BD43"/>
<path d="M5.43815 22.4739C5.62222 21.0893 4.73556 19.7603 3.36458 19.4934C1.99358 19.2265 0.658656 20.1213 0.464654 21.5045C-1.13914 32.9389 1.49898 44.4081 8.0017 54.0547C14.5046 63.7016 24.1468 70.4496 35.3482 73.2522C36.7031 73.5912 38.0333 72.6894 38.3002 71.3184C38.5671 69.9474 37.6677 68.627 36.3152 68.2783C15.978 63.0342 2.67041 43.2932 5.43815 22.4739Z" fill="#74BD43"/>
</svg>
