<svg width="95" height="95" viewBox="0 0 95 95" fill="none" xmlns="http://www.w3.org/2000/svg">
<g clip-path="url(#clip0)">
<g clip-path="url(#clip1)">
<path d="M59.475 87.9517C60.8115 87.5458 62.2666 88.2055 62.752 89.5152C63.2374 90.8249 62.5706 92.2871 61.2371 92.7025C50.2133 96.1369 38.4684 95.391 27.896 90.5363C17.3233 85.6816 9.10289 77.2595 4.52323 66.6598C3.96926 65.3776 4.64374 63.919 5.95341 63.4336C7.26307 62.9482 8.71175 63.6219 9.27491 64.9C17.7433 84.1195 39.3788 94.0545 59.475 87.9517Z" fill="#E0E267"/>
<path d="M36.5377 6.56173C37.8888 6.20736 38.7826 4.88319 38.5101 3.51332C38.2375 2.14346 36.9036 1.2472 35.55 1.59184C24.3607 4.44094 14.7468 11.2287 8.28405 20.9022C1.82112 30.5759 -0.769454 42.0561 0.881927 53.4841C1.08168 54.8665 2.42032 55.7557 3.79018 55.4831C5.16005 55.2105 6.04117 53.8778 5.85135 52.4941C2.99708 31.6865 16.2225 11.8903 36.5377 6.56173Z" fill="#E0E267"/>
<path d="M85.2356 30.3407C85.7898 31.6228 87.2337 32.3067 88.5467 31.8305C89.8598 31.3543 90.5445 29.9004 89.9996 28.6144C85.4947 17.9831 77.334 9.50354 66.7961 4.57442C56.258 -0.354822 44.5183 -1.18344 33.4703 2.17344C32.1339 2.5795 31.4568 4.03698 31.933 5.35003C32.4092 6.66308 33.8596 7.33301 35.1989 6.93657C55.3375 0.975253 76.9027 11.0621 85.2356 30.3407Z" fill="#E0E267"/>
<path d="M88.7631 47.05C88.7648 48.4467 89.8203 49.6461 91.2146 49.7283C92.6089 49.8106 93.813 48.7462 93.8214 47.3495C93.8906 35.8034 89.751 24.7868 82.0235 16.0904C74.2957 7.3938 63.8419 1.98771 52.3673 0.699249C50.9793 0.543391 49.7809 1.61405 49.6986 3.00835C49.6164 4.40264 50.6834 5.59179 52.0702 5.75762C72.9241 8.25113 88.7382 26.0476 88.7631 47.05Z" fill="#E0E267"/>
<path d="M90.7223 58.9116C91.9636 59.3518 92.6655 60.6744 92.2642 61.9289C88.9802 72.1945 82.3576 80.8785 73.3319 86.759C72.1616 87.5215 70.6101 87.1029 69.9105 85.894C69.211 84.6851 69.6295 83.1441 70.7943 82.3733C78.8558 77.0383 84.5077 69.2858 87.343 60.6404C87.8057 59.2297 89.323 58.4153 90.7223 58.9116Z" fill="#E0E267"/>
</g>
<path d="M33.0788 56.2972L35.9281 63.4087L38.7775 56.2972H40.268V65.0129H39.1187V61.6188L39.2264 57.9554L36.3651 65.0129H35.4852L32.6298 57.9733L32.7435 61.6188V65.0129H31.5942V56.2972H33.0788ZM43.8369 65.0129H42.6876V56.2972H43.8369V65.0129ZM52.9489 65.0129H51.7936L47.4058 58.2966V65.0129H46.2505V56.2972H47.4058L51.8056 63.0435V56.2972H52.9489V65.0129ZM57.8647 61.128C56.879 60.8446 56.1606 60.4975 55.7097 60.0864C55.2627 59.6714 55.0392 59.1606 55.0392 58.554C55.0392 57.8676 55.3126 57.3009 55.8593 56.8539C56.41 56.403 57.1244 56.1775 58.0023 56.1775C58.6009 56.1775 59.1337 56.2932 59.6006 56.5247C60.0715 56.7562 60.4347 57.0754 60.6901 57.4825C60.9495 57.8895 61.0792 58.3345 61.0792 58.8174H59.9239C59.9239 58.2906 59.7563 57.8775 59.421 57.5782C59.0858 57.275 58.6129 57.1233 58.0023 57.1233C57.4357 57.1233 56.9927 57.249 56.6734 57.5004C56.3582 57.7479 56.2005 58.093 56.2005 58.536C56.2005 58.8912 56.3502 59.1925 56.6495 59.4399C56.9528 59.6833 57.4656 59.9068 58.1879 60.1104C58.9142 60.3139 59.4809 60.5394 59.8879 60.7868C60.299 61.0302 60.6023 61.3155 60.7978 61.6428C60.9974 61.97 61.0971 62.3551 61.0971 62.7981C61.0971 63.5045 60.8218 64.0711 60.2711 64.4981C59.7203 64.9212 58.9841 65.1327 58.0622 65.1327C57.4636 65.1327 56.9049 65.0189 56.3861 64.7915C55.8673 64.56 55.4662 64.2447 55.1829 63.8457C54.9036 63.4466 54.7639 62.9936 54.7639 62.4868H55.9192C55.9192 63.0136 56.1127 63.4306 56.4998 63.7379C56.8909 64.0412 57.4117 64.1928 58.0622 64.1928C58.6688 64.1928 59.1337 64.0691 59.457 63.8217C59.7802 63.5743 59.9418 63.2371 59.9418 62.8101C59.9418 62.3831 59.7922 62.0538 59.4929 61.8224C59.1936 61.5869 58.6508 61.3555 57.8647 61.128Z" fill="white"/>
<path d="M43.8234 40.893H45.706V44.2003H43.8234V48.1309H39.5366V44.2003H32.3751L32.1206 41.5799L39.5366 29.6481V29.61H43.8234V40.893ZM36.2039 40.893H39.5366V35.1942L39.2695 35.6267L36.2039 40.893ZM59.6827 40.5622C59.6827 43.0639 59.1188 44.9932 57.9909 46.35C56.8715 47.7068 55.29 48.3853 53.2462 48.3853C51.1855 48.3853 49.5912 47.7026 48.4634 46.3373C47.3355 44.972 46.7715 43.0469 46.7715 40.5622V37.1786C46.7715 34.6769 47.3312 32.7477 48.4506 31.3908C49.5785 30.034 51.1686 29.3556 53.2208 29.3556C55.273 29.3556 56.863 30.0382 57.9909 31.4035C59.1188 32.7689 59.6827 34.6981 59.6827 37.1913V40.5622ZM55.396 36.6316C55.396 35.3002 55.2221 34.308 54.8744 33.6551C54.5267 32.9936 53.9755 32.6629 53.2208 32.6629C52.483 32.6629 51.9445 32.9682 51.6053 33.5787C51.2746 34.1893 51.0965 35.1137 51.071 36.3518V41.0838C51.071 42.466 51.2449 43.4794 51.5926 44.1239C51.9403 44.76 52.4915 45.078 53.2462 45.078C53.9755 45.078 54.514 44.7684 54.8617 44.1494C55.2094 43.5218 55.3875 42.5424 55.396 41.211V36.6316Z" fill="white"/>
</g>
<defs>
<clipPath id="clip0">
<rect width="95" height="95" fill="white" transform="translate(-0.00012207)"/>
</clipPath>
<clipPath id="clip1">
<rect width="95.0108" height="94.2446" fill="white" transform="translate(19.9296 108.421) rotate(-110.336)"/>
</clipPath>
</defs>
</svg>
