<svg width="95" height="95" viewBox="0 0 95 95" fill="none" xmlns="http://www.w3.org/2000/svg">
<g clip-path="url(#clip0)">
<g clip-path="url(#clip1)">
<path d="M4.7885 47.6505C4.80667 49.0471 3.76832 50.2613 2.37533 50.3633C0.982342 50.4654 -0.236757 49.4182 -0.264966 48.0218C-0.498165 36.4778 3.4846 25.4036 11.0879 16.5984C18.6914 7.79289 29.0674 2.23893 40.5225 0.787686C41.9082 0.612139 43.1217 1.66567 43.2238 3.05866C43.3258 4.45165 42.2758 5.65583 40.8915 5.84132C20.0751 8.63067 4.51519 26.6498 4.7885 47.6505Z" fill="#67B1E2"/>
<path d="M88.3466 48.2524C88.3112 49.6487 89.3346 50.8755 90.7262 50.9947C92.1178 51.1138 93.3497 50.0817 93.3951 48.6858C93.7701 37.1455 89.9237 26.0232 82.4292 17.1252C74.9344 8.22694 64.6275 2.54591 53.191 0.954018C51.8077 0.761458 50.5812 1.8 50.4621 3.19163C50.343 4.58326 51.3781 5.80025 52.76 6.00274C73.5406 9.04765 88.8779 27.2567 88.3466 48.2524Z" fill="#67B1E2"/>
<path d="M51.9627 88.4163C50.5771 88.5921 49.5187 89.7888 49.6109 91.1825C49.7031 92.5762 50.9093 93.6382 52.2961 93.4724C63.7608 92.1018 74.1754 86.6212 81.8406 77.8698C89.5061 69.1182 93.5668 58.072 93.4148 46.5263C93.3964 45.1297 92.1847 44.0741 90.791 44.1663C89.3974 44.2585 88.3505 45.4654 88.3589 46.8621C88.4844 67.8642 72.7982 85.7734 51.9627 88.4163Z" fill="#67B1E2"/>
<path d="M34.9316 87.1578C33.5895 86.771 32.1439 87.4513 31.6772 88.7677C31.2104 90.0841 31.8979 91.5367 33.2372 91.9332C44.3086 95.2107 56.0418 94.2981 66.5442 89.2939C77.0468 84.2895 85.1469 75.7515 89.5756 65.0879C90.1113 63.798 89.4162 62.349 88.0997 61.8823C86.7833 61.4156 85.3443 62.1097 84.7994 63.3958C76.6048 82.7336 55.1124 92.9747 34.9316 87.1578Z" fill="#67B1E2"/>
<path d="M23.9936 85.7407C23.2255 86.8106 21.7599 87.117 20.6665 86.3827C11.7191 80.3734 5.21947 71.597 2.08091 61.2919C1.67397 59.9558 2.50752 58.5818 3.86329 58.2461C5.21907 57.9104 6.5829 58.7409 6.99939 60.0741C9.88202 69.3013 15.7569 76.8862 23.2727 82.0139C24.4992 82.8507 24.8594 84.5346 23.9936 85.7407Z" fill="#67B1E2"/>
</g>
<path d="M32.5367 65.0123H31.3814V60.9837H26.9876V65.0123H25.8383V56.2966H26.9876V60.0439H31.3814V56.2966H32.5367V65.0123ZM41.5888 60.9358C41.5888 61.7898 41.4451 62.5361 41.1578 63.1746C40.8705 63.8091 40.4634 64.294 39.9367 64.6292C39.4099 64.9644 38.7953 65.1321 38.093 65.1321C37.4065 65.1321 36.798 64.9644 36.2672 64.6292C35.7364 64.29 35.3234 63.8091 35.0281 63.1866C34.7368 62.56 34.5871 61.8357 34.5791 61.0136V60.3851C34.5791 59.5471 34.7248 58.8068 35.0161 58.1643C35.3074 57.5218 35.7185 57.0309 36.2492 56.6917C36.784 56.3485 37.3946 56.1769 38.081 56.1769C38.7794 56.1769 39.3939 56.3465 39.9247 56.6857C40.4594 57.0209 40.8705 57.5098 41.1578 58.1523C41.4451 58.7908 41.5888 59.5351 41.5888 60.3851V60.9358ZM40.4455 60.3731C40.4455 59.3395 40.238 58.5474 39.8229 57.9967C39.4079 57.442 38.8272 57.1646 38.081 57.1646C37.3547 57.1646 36.782 57.442 36.363 57.9967C35.9479 58.5474 35.7344 59.3136 35.7225 60.2953V60.9358C35.7225 61.9375 35.932 62.7257 36.351 63.3003C36.774 63.871 37.3547 64.1563 38.093 64.1563C38.8352 64.1563 39.4099 63.8869 39.8169 63.3482C40.224 62.8055 40.4335 62.0293 40.4455 61.0196V60.3731ZM49.755 56.2966V62.2228C49.751 63.0449 49.4916 63.7173 48.9768 64.2401C48.466 64.7629 47.7716 65.0562 46.8937 65.1201L46.5884 65.1321C45.6346 65.1321 44.8744 64.8746 44.3077 64.3598C43.741 63.845 43.4537 63.1367 43.4457 62.2348V56.2966H44.583V62.1989C44.583 62.8294 44.7566 63.3203 45.1038 63.6715C45.451 64.0186 45.9459 64.1922 46.5884 64.1922C47.2389 64.1922 47.7357 64.0186 48.0789 63.6715C48.4261 63.3243 48.5997 62.8354 48.5997 62.2049V56.2966H49.755ZM55.0718 61.4865H53.0246V65.0123H51.8693V56.2966H54.7546C55.7363 56.2966 56.4905 56.5201 57.0173 56.9671C57.5481 57.414 57.8134 58.0645 57.8134 58.9185C57.8134 59.4613 57.6658 59.9342 57.3705 60.3372C57.0792 60.7403 56.6721 61.0416 56.1493 61.2411L58.1966 64.9405V65.0123H56.9634L55.0718 61.4865ZM53.0246 60.5467H54.7905C55.3612 60.5467 55.8141 60.3991 56.1493 60.1038C56.4885 59.8084 56.6581 59.4134 56.6581 58.9185C56.6581 58.3798 56.4965 57.9667 56.1733 57.6794C55.854 57.3921 55.3911 57.2464 54.7845 57.2424H53.0246V60.5467ZM62.3042 61.1274C61.3185 60.844 60.6002 60.4968 60.1492 60.0858C59.7022 59.6708 59.4788 59.16 59.4788 58.5534C59.4788 57.867 59.7521 57.3003 60.2989 56.8533C60.8496 56.4024 61.5639 56.1769 62.4419 56.1769C63.0405 56.1769 63.5732 56.2926 64.0402 56.5241C64.5111 56.7555 64.8742 57.0748 65.1296 57.4819C65.389 57.8889 65.5187 58.3339 65.5187 58.8168H64.3634C64.3634 58.29 64.1958 57.8769 63.8606 57.5776C63.5253 57.2743 63.0525 57.1227 62.4419 57.1227C61.8752 57.1227 61.4322 57.2484 61.113 57.4998C60.7977 57.7472 60.6401 58.0924 60.6401 58.5354C60.6401 58.8906 60.7897 59.1919 61.089 59.4393C61.3923 59.6827 61.9051 59.9062 62.6274 60.1097C63.3537 60.3133 63.9204 60.5387 64.3275 60.7862C64.7385 61.0296 65.0418 61.3149 65.2374 61.6422C65.4369 61.9694 65.5367 62.3545 65.5367 62.7975C65.5367 63.5038 65.2613 64.0705 64.7106 64.4975C64.1599 64.9205 63.4236 65.1321 62.5017 65.1321C61.9031 65.1321 61.3444 65.0183 60.8256 64.7908C60.3068 64.5594 59.9058 64.2441 59.6224 63.845C59.3431 63.446 59.2034 62.993 59.2034 62.4862H60.3587C60.3587 63.013 60.5523 63.43 60.9394 63.7373C61.3305 64.0406 61.8512 64.1922 62.5017 64.1922C63.1083 64.1922 63.5732 64.0685 63.8965 63.8211C64.2197 63.5737 64.3814 63.2365 64.3814 62.8095C64.3814 62.3825 64.2317 62.0532 63.9324 61.8218C63.6331 61.5863 63.0904 61.3548 62.3042 61.1274Z" fill="white"/>
<path d="M41.7292 48.1299H37.4297V34.4427L33.2065 35.6766V32.4202L41.3349 29.609H41.7292V48.1299ZM59.0386 34.5572C59.0386 35.4561 58.8139 36.249 58.3645 36.9359C57.9235 37.6228 57.3129 38.1741 56.5327 38.5896C57.4147 39.0221 58.1143 39.6157 58.6316 40.3704C59.1489 41.1167 59.4075 42.0029 59.4075 43.029C59.4075 44.6827 58.8351 45.9886 57.6903 46.9469C56.5539 47.9052 54.9851 48.3843 52.9837 48.3843C50.9739 48.3843 49.3881 47.9052 48.2263 46.9469C47.0645 45.9801 46.4836 44.6742 46.4836 43.029C46.4836 42.0368 46.738 41.1591 47.2468 40.3959C47.7557 39.6327 48.4765 39.0306 49.4093 38.5896C48.6206 38.1741 48.0016 37.6228 47.5521 36.9359C47.1027 36.249 46.8779 35.4561 46.8779 34.5572C46.8779 32.946 47.4249 31.6739 48.5189 30.7411C49.6128 29.8083 51.0884 29.3419 52.9456 29.3419C54.8197 29.3419 56.3038 29.8083 57.3977 30.7411C58.4917 31.6739 59.0386 32.946 59.0386 34.5572ZM55.108 42.6856C55.108 41.9223 54.9088 41.3372 54.5102 40.9301C54.1201 40.5146 53.6028 40.3068 52.9583 40.3068C52.3138 40.3068 51.7923 40.5146 51.3937 40.9301C50.9951 41.3372 50.7958 41.9223 50.7958 42.6856C50.7958 43.4233 50.9951 44.0085 51.3937 44.441C51.8007 44.865 52.3308 45.077 52.9837 45.077C53.6198 45.077 54.1328 44.865 54.5229 44.441C54.913 44.017 55.108 43.4318 55.108 42.6856ZM52.9456 32.6492C52.3689 32.6492 51.9279 32.84 51.6227 33.2216C51.3258 33.5947 51.1774 34.1163 51.1774 34.7862C51.1774 35.4477 51.3301 35.9819 51.6354 36.389C51.9407 36.796 52.3901 36.9995 52.9837 36.9995C53.5689 36.9995 54.0056 36.796 54.2939 36.389C54.5907 35.9819 54.7391 35.4477 54.7391 34.7862C54.7391 34.1247 54.5865 33.6032 54.2812 33.2216C53.9844 32.84 53.5392 32.6492 52.9456 32.6492Z" fill="white"/>
</g>
<defs>
<clipPath id="clip0">
<rect width="95" height="95" fill="white" transform="translate(-0.00012207)"/>
</clipPath>
<clipPath id="clip1">
<rect width="95.0108" height="94.2446" fill="white" transform="translate(-3.87512 3.97266) rotate(-4.18881)"/>
</clipPath>
</defs>
</svg>
