<svg width="95" height="95" viewBox="0 0 95 95" fill="none" xmlns="http://www.w3.org/2000/svg">
<g clip-path="url(#clip0)">
<path d="M54.103 5.86354C55.4804 6.09525 56.8392 5.25498 57.1532 3.89401C57.4673 2.53305 56.6191 1.16805 55.2434 0.926444C43.8711 -1.07084 32.3178 1.17006 22.4526 7.33613C12.5871 13.5023 5.51052 22.906 2.32313 34.0041C1.93758 35.3465 2.79295 36.707 4.15392 37.0211C5.51488 37.3351 6.86557 36.4818 7.26076 35.1421C13.2033 14.9979 33.3916 2.37924 54.103 5.86354Z" fill="#43E4BE"/>
<path d="M41.756 89.5183C43.1412 89.697 44.197 90.8961 44.1018 92.2896C44.0065 93.683 42.798 94.7424 41.4116 94.5736C29.9499 93.178 19.5473 87.6746 11.9012 78.9065C4.25489 70.1381 0.218296 59.0831 0.395544 47.5378C0.416984 46.1412 1.63099 45.0882 3.02446 45.1835C4.41793 45.2787 5.46215 46.4879 5.45075 47.8846C5.27926 68.8863 20.9263 86.8299 41.756 89.5183Z" fill="#43E4BE"/>
<path d="M87.0154 59.7103C87.4011 58.3679 88.7458 57.5051 90.1089 57.8096C91.4721 58.114 92.337 59.4685 91.9609 60.8136C88.8517 71.9334 81.8417 81.3865 72.0202 87.622C62.1985 93.8577 50.661 96.1799 39.2746 94.2626C37.8972 94.0307 37.0394 92.6717 37.3439 91.3085C37.6483 89.9454 39.0012 89.0956 40.3802 89.3176C61.1156 92.6561 81.2147 79.8958 87.0154 59.7103Z" fill="#43E4BE"/>
<path d="M88.3784 42.6872C88.2015 41.3017 89.095 39.9773 90.4674 39.7175C91.8397 39.4578 93.17 40.3595 93.3568 41.7436C94.9012 53.1862 92.2036 64.6415 85.6509 74.2543C79.098 83.8672 69.4209 90.5651 58.2051 93.3095C56.8484 93.6415 55.5229 92.7328 55.2631 91.3604C55.0033 89.9881 55.9096 88.6723 57.2639 88.3306C77.628 83.1922 91.038 63.5206 88.3784 42.6872Z" fill="#43E4BE"/>
<path d="M88.8052 30.6725C89.98 30.0772 90.5071 28.6757 89.9488 27.4829C85.3798 17.7212 77.7015 9.95481 67.9983 5.27601C66.7402 4.66937 65.2548 5.28281 64.7155 6.57123C64.1763 7.85965 64.7883 9.33452 66.042 9.95015C74.7193 14.2111 81.3157 21.1776 85.2327 29.3897C85.8718 30.7298 87.4808 31.3435 88.8052 30.6725Z" fill="#43E4BE"/>
<path d="M34.3322 61.1287C33.3465 60.8454 32.6282 60.4982 32.1772 60.0871C31.7303 59.6721 31.5068 59.1613 31.5068 58.5547C31.5068 57.8683 31.7801 57.3016 32.3269 56.8547C32.8776 56.4037 33.5919 56.1782 34.4699 56.1782C35.0685 56.1782 35.6012 56.294 36.0682 56.5254C36.5391 56.7569 36.9022 57.0761 37.1576 57.4832C37.417 57.8903 37.5467 58.3352 37.5467 58.8181H36.3914C36.3914 58.2913 36.2238 57.8783 35.8886 57.579C35.5534 57.2757 35.0805 57.124 34.4699 57.124C33.9032 57.124 33.4602 57.2497 33.141 57.5012C32.8257 57.7486 32.6681 58.0938 32.6681 58.5367C32.6681 58.8919 32.8177 59.1932 33.117 59.4406C33.4203 59.6841 33.9331 59.9076 34.6554 60.1111C35.3818 60.3146 35.9484 60.5401 36.3555 60.7875C36.7665 61.0309 37.0698 61.3163 37.2654 61.6435C37.4649 61.9708 37.5647 62.3559 37.5647 62.7988C37.5647 63.5052 37.2893 64.0719 36.7386 64.4989C36.1879 64.9219 35.4516 65.1334 34.5297 65.1334C33.9311 65.1334 33.3724 65.0197 32.8536 64.7922C32.3348 64.5607 31.9338 64.2455 31.6504 63.8464C31.3711 63.4473 31.2314 62.9944 31.2314 62.4876H32.3867C32.3867 63.0143 32.5803 63.4314 32.9674 63.7386C33.3585 64.0419 33.8793 64.1936 34.5297 64.1936C35.1363 64.1936 35.6012 64.0699 35.9245 63.8224C36.2477 63.575 36.4094 63.2378 36.4094 62.8108C36.4094 62.3838 36.2597 62.0546 35.9604 61.8231C35.6611 61.5876 35.1184 61.3562 34.3322 61.1287ZM44.2762 60.9851H40.499V64.0739H44.8868V65.0137H39.3497V56.298H44.827V57.2438H40.499V60.0452H44.2762V60.9851ZM53.0351 62.2481C52.9273 63.17 52.5861 63.8823 52.0114 64.3851C51.4408 64.884 50.6805 65.1334 49.7307 65.1334C48.7011 65.1334 47.8751 64.7643 47.2525 64.026C46.634 63.2877 46.3247 62.3 46.3247 61.0629V60.2248C46.3247 59.4147 46.4683 58.7024 46.7557 58.0878C47.047 57.4732 47.458 57.0023 47.9888 56.6751C48.5196 56.3439 49.1341 56.1782 49.8325 56.1782C50.7584 56.1782 51.5006 56.4376 52.0593 56.9564C52.618 57.4712 52.9433 58.1856 53.0351 59.0994H51.8797C51.78 58.4051 51.5625 57.9022 51.2273 57.591C50.896 57.2797 50.4311 57.124 49.8325 57.124C49.0982 57.124 48.5216 57.3954 48.1025 57.9381C47.6875 58.4809 47.48 59.2531 47.48 60.2548V61.0988C47.48 62.0446 47.6775 62.7968 48.0726 63.3555C48.4677 63.9142 49.0204 64.1936 49.7307 64.1936C50.3693 64.1936 50.8581 64.0499 51.1973 63.7626C51.5405 63.4713 51.768 62.9664 51.8797 62.2481H53.0351ZM57.4839 61.1287C56.4982 60.8454 55.7799 60.4982 55.3289 60.0871C54.882 59.6721 54.6585 59.1613 54.6585 58.5547C54.6585 57.8683 54.9318 57.3016 55.4786 56.8547C56.0293 56.4037 56.7436 56.1782 57.6216 56.1782C58.2202 56.1782 58.7529 56.294 59.2199 56.5254C59.6908 56.7569 60.0539 57.0761 60.3093 57.4832C60.5687 57.8903 60.6984 58.3352 60.6984 58.8181H59.5431C59.5431 58.2913 59.3755 57.8783 59.0403 57.579C58.7051 57.2757 58.2322 57.124 57.6216 57.124C57.0549 57.124 56.6119 57.2497 56.2927 57.5012C55.9774 57.7486 55.8198 58.0938 55.8198 58.5367C55.8198 58.8919 55.9694 59.1932 56.2687 59.4406C56.572 59.6841 57.0848 59.9076 57.8072 60.1111C58.5335 60.3146 59.1001 60.5401 59.5072 60.7875C59.9182 61.0309 60.2215 61.3163 60.4171 61.6435C60.6166 61.9708 60.7164 62.3559 60.7164 62.7988C60.7164 63.5052 60.441 64.0719 59.8903 64.4989C59.3396 64.9219 58.6033 65.1334 57.6814 65.1334C57.0828 65.1334 56.5241 65.0197 56.0053 64.7922C55.4866 64.5607 55.0855 64.2455 54.8021 63.8464C54.5228 63.4473 54.3831 62.9944 54.3831 62.4876H55.5384C55.5384 63.0143 55.732 63.4314 56.1191 63.7386C56.5102 64.0419 57.031 64.1936 57.6814 64.1936C58.288 64.1936 58.7529 64.0699 59.0762 63.8224C59.3994 63.575 59.5611 63.2378 59.5611 62.8108C59.5611 62.3838 59.4114 62.0546 59.1121 61.8231C58.8128 61.5876 58.2701 61.3562 57.4839 61.1287Z" fill="white"/>
<path d="M36.3148 37.0768H38.3373C39.9401 37.0768 40.7415 36.2924 40.7415 34.7236C40.7415 34.113 40.5507 33.6169 40.1691 33.2353C39.7875 32.8452 39.249 32.6501 38.5536 32.6501C37.9854 32.6501 37.4893 32.8155 37.0653 33.1462C36.6498 33.477 36.442 33.8883 36.442 34.3801H32.1552C32.1552 33.4049 32.4266 32.5357 32.9693 31.7724C33.5121 31.0092 34.2626 30.4156 35.2208 29.9916C36.1876 29.5591 37.2476 29.3428 38.4009 29.3428C40.4616 29.3428 42.0814 29.8135 43.2601 30.7548C44.4389 31.6961 45.0283 32.9894 45.0283 34.6345C45.0283 35.4317 44.7823 36.1864 44.2905 36.8988C43.8071 37.6026 43.099 38.175 42.1662 38.616C43.1499 38.9722 43.9216 39.5149 44.4813 40.2442C45.041 40.965 45.3208 41.8597 45.3208 42.9282C45.3208 44.5819 44.6848 45.9048 43.4128 46.897C42.1407 47.8892 40.4701 48.3853 38.4009 48.3853C37.1883 48.3853 36.0604 48.1563 35.0173 47.6984C33.9827 47.232 33.1983 46.5917 32.664 45.7776C32.1298 44.955 31.8627 44.0222 31.8627 42.9791H36.1749C36.1749 43.5473 36.4038 44.0391 36.8618 44.4547C37.3197 44.8702 37.8836 45.078 38.5536 45.078C39.3083 45.078 39.9104 44.8702 40.3599 44.4547C40.8093 44.0307 41.0341 43.4922 41.0341 42.8392C41.0341 41.9063 40.8008 41.2449 40.3344 40.8548C39.868 40.4647 39.2235 40.2697 38.4009 40.2697H36.3148V37.0768ZM59.5774 40.5622C59.5774 43.0639 59.0135 44.9932 57.8856 46.35C56.7662 47.7068 55.1846 48.3853 53.1409 48.3853C51.0802 48.3853 49.4859 47.7026 48.358 46.3373C47.2301 44.972 46.6662 43.0469 46.6662 40.5622V37.1786C46.6662 34.6769 47.2259 32.7477 48.3453 31.3908C49.4732 30.034 51.0632 29.3556 53.1154 29.3556C55.1677 29.3556 56.7577 30.0382 57.8856 31.4035C59.0135 32.7689 59.5774 34.6981 59.5774 37.1913V40.5622ZM55.2906 36.6316C55.2906 35.3002 55.1168 34.308 54.7691 33.6551C54.4214 32.9936 53.8702 32.6629 53.1154 32.6629C52.3776 32.6629 51.8392 32.9682 51.4999 33.5787C51.1692 34.1893 50.9911 35.1137 50.9657 36.3518V41.0838C50.9657 42.466 51.1395 43.4794 51.4872 44.1239C51.8349 44.76 52.3861 45.078 53.1409 45.078C53.8702 45.078 54.4087 44.7684 54.7564 44.1494C55.1041 43.5218 55.2821 42.5424 55.2906 41.211V36.6316Z" fill="white"/>
</g>
<defs>
<clipPath id="clip0">
<rect width="95" height="95" fill="white" transform="translate(-0.00012207)"/>
</clipPath>
</defs>
</svg>
