<svg width="95" height="95" viewBox="0 0 95 95" fill="none" xmlns="http://www.w3.org/2000/svg">
<g clip-path="url(#clip0)">
<g clip-path="url(#clip1)">
<path d="M39.904 5.82833C38.5255 6.05289 37.171 5.20557 36.8641 3.843C36.5571 2.48042 37.4124 1.11984 38.7893 0.885383C50.1718 -1.05283 61.7133 1.24804 71.5464 7.46525C81.3797 13.6826 88.4074 23.1229 91.5371 34.2374C91.9157 35.5818 91.0532 36.9379 89.6907 37.2448C88.3281 37.5518 86.9818 36.6914 86.5936 35.3498C80.7558 15.175 60.6333 2.45163 39.904 5.82833Z" fill="#74BD43"/>
<path d="M51.8167 89.5464C50.4306 89.718 49.3686 90.9116 49.4566 92.3055C49.5446 93.6995 50.7475 94.7651 52.1349 94.6035C63.6036 93.2674 74.0347 87.8181 81.7262 79.0898C89.4179 70.3613 93.5119 59.3274 93.3946 47.7813C93.3804 46.3846 92.1719 45.3253 90.7779 45.4134C89.384 45.5014 88.3335 46.7051 88.3377 48.1018C88.4001 69.1042 72.6601 86.9662 51.8167 89.5464Z" fill="#74BD43"/>
<path d="M6.71273 59.5038C6.33394 58.1595 4.99379 57.2897 3.62909 57.5871C2.26438 57.8844 1.39244 59.2344 1.76156 60.5814C4.81294 71.7173 11.7738 81.2066 21.5628 87.493C31.352 93.7796 42.8773 96.1618 54.2735 94.3036C55.652 94.0788 56.5168 92.7243 56.2195 91.3596C55.9221 89.9949 54.5736 89.1381 53.1935 89.3529C32.4411 92.5837 12.4085 79.7192 6.71273 59.5038Z" fill="#74BD43"/>
<path d="M5.43815 42.4739C5.62222 41.0893 4.73556 39.7603 3.36458 39.4934C1.99358 39.2265 0.658656 40.1213 0.464654 41.5045C-1.13914 52.9389 1.49898 64.4081 8.0017 74.0547C14.5046 83.7016 24.1468 90.4496 35.3482 93.2522C36.7031 93.5912 38.0333 92.6894 38.3002 91.3184C38.5671 89.9474 37.6677 88.627 36.3152 88.2783C15.978 83.0342 2.67041 63.2932 5.43815 42.4739Z" fill="#74BD43"/>
<path d="M5.07357 30.4566C3.90182 29.8552 3.38201 28.4511 3.94653 27.2611C8.56618 17.5233 16.2846 9.7969 26.012 5.16855C27.2733 4.56845 28.7555 5.18959 29.288 6.4808C29.8206 7.772 29.2009 9.24367 27.944 9.85279C19.2447 14.0686 12.6123 21.0008 8.65269 29.1924C8.00657 30.5292 6.39443 31.1345 5.07357 30.4566Z" fill="#74BD43"/>
</g>
<path d="M30.3595 65.012V56.2963H32.8198C33.578 56.2963 34.2485 56.4639 34.8311 56.7991C35.4138 57.1343 35.8627 57.6112 36.178 58.2298C36.4972 58.8483 36.6589 59.5587 36.6629 60.3608V60.9175C36.6629 61.7396 36.5032 62.4599 36.184 63.0785C35.8687 63.697 35.4158 64.1719 34.8251 64.5031C34.2385 64.8344 33.5541 65.004 32.7719 65.012H30.3595ZM31.5089 57.2421V64.0722H32.718C33.604 64.0722 34.2924 63.7968 34.7832 63.2461C35.2781 62.6954 35.5255 61.9112 35.5255 60.8936V60.3847C35.5255 59.395 35.2921 58.6268 34.8251 58.0801C34.3622 57.5294 33.7038 57.25 32.8497 57.2421H31.5089ZM43.3924 62.7373H39.7409L38.9208 65.012H37.7356L41.0638 56.2963H42.0695L45.4037 65.012H44.2245L43.3924 62.7373ZM40.0881 61.7915H43.0512L41.5666 57.7149L40.0881 61.7915ZM48.9786 60.6721L51.2533 56.2963H52.5583L49.5533 61.7615V65.012H48.4039V61.7615L45.3989 56.2963H46.7159L48.9786 60.6721ZM56.4624 61.127C55.4767 60.8437 54.7583 60.4965 54.3074 60.0854C53.8604 59.6704 53.6369 59.1596 53.6369 58.553C53.6369 57.8666 53.9103 57.2999 54.457 56.853C55.0078 56.402 55.7221 56.1765 56.6001 56.1765C57.1987 56.1765 57.7314 56.2923 58.1983 56.5237C58.6692 56.7552 59.0324 57.0744 59.2878 57.4815C59.5472 57.8885 59.6769 58.3335 59.6769 58.8164H58.5216C58.5216 58.2896 58.354 57.8766 58.0187 57.5773C57.6835 57.274 57.2106 57.1223 56.6001 57.1223C56.0334 57.1223 55.5904 57.248 55.2711 57.4995C54.9559 57.7469 54.7982 58.0921 54.7982 58.535C54.7982 58.8902 54.9479 59.1915 55.2472 59.4389C55.5505 59.6824 56.0633 59.9058 56.7856 60.1094C57.5119 60.3129 58.0786 60.5384 58.4857 60.7858C58.8967 61.0292 59.2 61.3146 59.3955 61.6418C59.5951 61.969 59.6948 62.3541 59.6948 62.7971C59.6948 63.5035 59.4195 64.0702 58.8688 64.4972C58.3181 64.9202 57.5818 65.1317 56.6599 65.1317C56.0613 65.1317 55.5026 65.0179 54.9838 64.7905C54.465 64.559 54.064 64.2438 53.7806 63.8447C53.5013 63.4456 53.3616 62.9927 53.3616 62.4858H54.5169C54.5169 63.0126 54.7105 63.4296 55.0975 63.7369C55.4886 64.0402 56.0094 64.1919 56.6599 64.1919C57.2665 64.1919 57.7314 64.0682 58.0547 63.8207C58.3779 63.5733 58.5395 63.2361 58.5395 62.8091C58.5395 62.3821 58.3899 62.0529 58.0906 61.8214C57.7913 61.5859 57.2485 61.3545 56.4624 61.127Z" fill="white"/>
<path d="M33.5258 48.1299H29.2263V34.4427L25.0032 35.6766V32.4202L33.1315 29.609H33.5258V48.1299ZM47.846 48.1299H43.5465V34.4427L39.3233 35.6766V32.4202L47.4517 29.609H47.846V48.1299ZM65.588 48.1299H52.664V45.3314L58.6172 39.073C60.0843 37.4024 60.8178 36.0752 60.8178 35.0915C60.8178 34.2943 60.644 33.688 60.2963 33.2725C59.9486 32.8569 59.444 32.6492 58.7825 32.6492C58.1296 32.6492 57.5995 32.929 57.1925 33.4887C56.7854 34.0399 56.5819 34.7311 56.5819 35.5621H52.2824C52.2824 34.4258 52.5665 33.3785 53.1347 32.4202C53.7029 31.4535 54.4915 30.6987 55.5007 30.156C56.5098 29.6132 57.6377 29.3419 58.8843 29.3419C60.8856 29.3419 62.4248 29.804 63.5018 30.7284C64.5873 31.6527 65.13 32.9799 65.13 34.7099C65.13 35.4392 64.9943 36.1515 64.723 36.8469C64.4516 37.5338 64.0276 38.2589 63.4509 39.0221C62.8827 39.7768 61.9626 40.7902 60.6906 42.0623L58.2992 44.8226H65.588V48.1299Z" fill="white"/>
</g>
<defs>
<clipPath id="clip0">
<rect width="95" height="95" fill="white" transform="translate(-0.00012207)"/>
</clipPath>
<clipPath id="clip1">
<rect width="95.0108" height="94.2446" fill="white" transform="translate(81.8202 -9.2002) rotate(77.3048)"/>
</clipPath>
</defs>
</svg>
