<svg width="97" height="88" viewBox="0 0 97 88" fill="none" xmlns="http://www.w3.org/2000/svg">
<path d="M57.4169 59.7953C57.4169 64.667 53.518 68.6492 48.6761 68.7868C48.5913 68.7868 48.5065 68.7868 48.4112 68.7868C48.3158 68.7868 48.2417 68.7868 48.1463 68.7868C43.3044 68.6492 39.4055 64.667 39.4055 59.7953C39.4055 54.8388 43.4421 50.8037 48.4006 50.8037C53.3802 50.7931 57.4169 54.8282 57.4169 59.7953Z" fill="#5E5E5E"/>
<path d="M97 5.52849V9.76479H93.2282V65.8958C93.2282 69.2424 90.5053 71.9642 87.1573 71.9642H81.4784C81.6585 71.7736 81.8281 71.5724 81.987 71.3606C82.2413 71.0429 82.4743 70.7145 82.6862 70.3756C83.0041 69.8673 83.269 69.3377 83.4915 68.787C83.9682 67.5797 84.2225 66.2982 84.2225 64.9638C84.2225 59.2659 79.5925 54.6378 73.8924 54.6378C68.1923 54.6378 63.5624 59.2659 63.5624 64.9638C63.5624 66.2982 63.806 67.5903 64.2934 68.787C64.5159 69.3377 64.7808 69.8673 65.0986 70.3756C65.3105 70.7145 65.5436 71.0429 65.7979 71.3606C65.9568 71.5724 66.1369 71.763 66.3064 71.9642H60.1084C59.3561 71.35 58.5403 70.8204 57.6822 70.3756C57.0465 70.0473 56.3896 69.7614 55.7115 69.539C56.0293 69.306 56.326 69.0518 56.6121 68.787C59.0489 66.563 60.5852 63.354 60.5852 59.7955C60.5852 53.081 55.1182 47.6267 48.4116 47.6267C41.705 47.6267 36.238 53.0915 36.238 59.7955C36.238 63.354 37.7742 66.563 40.2111 68.787C40.4971 69.0518 40.8044 69.306 41.1116 69.539C40.4336 69.772 39.7661 70.0473 39.141 70.3756C38.2828 70.8204 37.467 71.35 36.7147 71.9642H29.097V38.7729L30.6862 39.4718L32.2754 40.1708L35.8671 41.7488C36.7465 42.1301 37.6789 42.3313 38.6112 42.3313C39.9144 42.3313 41.207 41.9501 42.3407 41.2193C43.2624 40.6156 44.0041 39.8319 44.5232 38.9105L54.3447 28.934L62.1744 36.7606L79.3488 19.593L76.3505 16.5958L62.185 30.7451L54.3341 22.8973L44.7987 32.5878C44.1842 31.2746 43.1459 30.1626 41.8109 29.453L32.286 24.4118L30.6968 23.5751L29.1075 22.7385V5.52849H44.3855V2.13945C44.3855 0.985057 45.3284 0.0424805 46.4833 0.0424805H52.872C54.0269 0.0424805 54.9698 0.985057 54.9698 2.13945V5.52849H97Z" fill="#5E5E5E"/>
<path d="M44.4074 16.3269H83.9427V43.9097H44.4074V35.6349V16.3269Z" fill="#5E5E5E"/>
<path d="M81.0438 64.9534C81.0438 66.3302 80.6623 67.6435 79.9313 68.7767C79.7935 68.9885 79.6558 69.1897 79.4969 69.3804C79.2108 69.7405 78.893 70.0688 78.5539 70.3653C77.6322 71.1702 76.5197 71.7103 75.3225 71.9539H72.4512C71.254 71.7103 70.1415 71.1702 69.2198 70.3653C68.8807 70.0688 68.5629 69.7405 68.2768 69.3804C68.1179 69.1897 67.9802 68.9779 67.8424 68.7767C67.1114 67.6329 66.73 66.3302 66.73 64.9534C66.73 61.0137 69.9402 57.8047 73.8816 57.8047C77.8441 57.8047 81.0438 61.0137 81.0438 64.9534Z" fill="#5E5E5E"/>
<path d="M42.1389 35.2882C42.0753 34.0173 41.3549 32.8629 40.2212 32.2593L32.2856 28.0547L30.6963 27.2181L29.1071 26.3814L25.9074 24.6869L24.0745 23.7231C23.0786 23.1936 21.9661 22.9182 20.843 22.9182H18.1201L15.2277 27.5252L12.3353 22.9182H8.84954C4.46323 22.9182 0.90332 26.4873 0.90332 30.8613V49.1621C0.90332 51.2591 2.57732 53.0065 4.64334 53.0489C5.68165 53.0701 6.66698 52.6888 7.40863 51.958C7.44041 51.9263 7.4722 51.8945 7.50398 51.8627V71.0743C7.50398 73.3514 9.3581 75.2047 11.636 75.2047C13.1829 75.2047 14.5284 74.3575 15.2383 73.0972C15.9482 74.3575 17.2937 75.2047 18.8406 75.2047C21.1185 75.2047 22.9726 73.3514 22.9726 71.0743V34.5151C22.9726 33.8161 23.5342 33.2548 24.2334 33.2548C24.4135 33.2548 24.5831 33.2866 24.742 33.3607L26.5219 34.1338L26.5325 34.1126L29.1283 35.2458L30.7175 35.9448L32.3068 36.6438L37.1911 38.7832C37.3818 38.8679 37.5725 38.9314 37.7632 38.9844C38.7061 39.1962 39.7021 39.0267 40.5285 38.476C40.9099 38.2218 41.2383 37.9147 41.4926 37.5546C41.927 36.951 42.1707 36.2202 42.1707 35.4471C42.1495 35.4047 42.1495 35.3412 42.1389 35.2882Z" fill="#5E5E5E"/>
<path d="M5.67087 9.56345C5.67087 4.28925 9.96183 0 15.2381 0C20.5144 0 24.8054 4.28925 24.8054 9.56345C24.8054 14.8376 20.5144 19.1269 15.2381 19.1269C9.96183 19.1269 5.67087 14.8376 5.67087 9.56345Z" fill="#5E5E5E"/>
<path d="M84.985 85.0329V87.7759H65.3631V82.9677C65.3631 82.8512 65.3631 82.7347 65.3631 82.6182C65.3631 82.5441 65.3631 82.4699 65.3525 82.3958C65.3525 82.3746 65.3525 82.3534 65.3525 82.3323C65.3525 82.2793 65.3525 82.2263 65.3419 82.1734C65.3419 82.1204 65.3419 82.0569 65.3313 82.0039C65.3313 81.9298 65.3207 81.8557 65.3101 81.7815C65.2995 81.6862 65.2889 81.5803 65.2783 81.485C65.2677 81.3897 65.2571 81.305 65.2466 81.2096C65.2466 81.1779 65.236 81.1461 65.236 81.1143C65.2254 81.0614 65.2254 81.0084 65.2148 80.9449C65.2042 80.9025 65.2042 80.8495 65.1936 80.8072C65.183 80.733 65.1724 80.6589 65.1618 80.5848C65.1512 80.5212 65.1406 80.4577 65.13 80.3941C65.1194 80.3518 65.1194 80.32 65.1088 80.2776C65.1088 80.2565 65.0982 80.2353 65.0982 80.2141C65.0876 80.14 65.0664 80.0764 65.0558 80.0023C65.0347 79.907 65.0135 79.8222 64.9923 79.7269C64.9923 79.7057 64.9817 79.6846 64.9817 79.674C64.9711 79.621 64.9499 79.5575 64.9393 79.5045C64.9287 79.4516 64.9181 79.4092 64.8969 79.3563C64.8757 79.2715 64.8545 79.1762 64.8228 79.0915C66.6663 76.6874 69.5057 75.2788 72.5677 75.2788H75.227C80.6092 75.2788 84.985 79.6528 84.985 85.0329Z" fill="#5E5E5E"/>
<path d="M62.1845 82.9681V87.7658H34.6482V82.9681C34.6482 81.7184 34.8495 80.5005 35.2627 79.3461C36.799 74.9298 40.984 71.9644 45.6564 71.9644H51.1763C55.8593 71.9644 60.0337 74.9298 61.5806 79.3461C61.9726 80.5111 62.1845 81.729 62.1845 82.9681Z" fill="#5E5E5E"/>
<path d="M49.0044 40.3969C49.0044 41.2903 50.0868 41.7353 50.7152 41.1002L59.2775 32.4474C59.6682 32.0525 60.306 32.0518 60.6976 32.4458L67.9305 39.7237C68.3215 40.1172 68.9581 40.1172 69.3491 39.7237L86.9198 22.0438C87.3074 21.6538 87.3074 21.024 86.9198 20.634L85.0157 18.7181C84.6247 18.3247 83.9884 18.3246 83.5973 18.7178L69.3608 33.0321C68.9698 33.4253 68.3334 33.4252 67.9425 33.0319L60.676 25.7202C60.2882 25.33 59.6582 25.3263 59.2658 25.7118L49.3035 35.5014C49.1122 35.6894 49.0044 35.9464 49.0044 36.2147V40.3969Z" fill="#67B1E2" stroke="white" stroke-width="2"/>
</svg>
