<svg width="100" height="100" viewBox="0 0 100 100" fill="none" xmlns="http://www.w3.org/2000/svg">
<path d="M38.3843 62.9438L46.8202 54.2544C47.8452 53.1981 49.2296 52.6079 50.7178 52.5924C52.1983 52.5948 53.6046 53.1384 54.653 54.1731L63.1757 62.5822L91.3257 39.5808C91.3366 39.5723 91.3491 39.5669 91.36 39.5583L92.1286 38.9304C93.1118 38.127 93.1073 36.6227 92.1193 35.8253L50.8981 2.55675C50.1663 1.9661 49.1218 1.96512 48.3888 2.5544L7.10743 35.7445C6.09821 36.5559 6.11442 38.0979 7.14048 38.8879L38.3843 62.9438ZM32.485 41.4248L45.0905 30.2308L46.9014 28.702C45.7624 24.8197 46.8233 20.6477 49.7561 17.7938L50.3928 17.1479C50.5202 17.0178 50.6686 16.9101 50.8319 16.8273C50.8296 16.825 50.8679 16.794 50.9077 16.7638C50.9913 16.7003 51.0936 16.6228 51.2124 16.5438C51.2983 16.4633 51.3929 16.3905 51.4936 16.3293C51.6358 16.2418 51.7702 16.155 51.9007 16.0714C52.3147 15.8042 52.7428 15.5277 53.2905 15.3016C54.5983 14.6921 56.071 14.3676 57.7233 14.3397C58.8991 14.3165 60.1624 14.5016 61.5905 14.8942C62.1686 15.0538 62.6194 15.4999 62.7757 16.0691C62.9327 16.6383 62.7725 17.2463 62.3546 17.6699L58.4929 21.5793C58.1514 21.924 57.9647 22.312 57.8921 22.8254L57.9061 23.6092C57.9452 23.7672 57.9866 23.9422 58.0108 24.1459L58.1749 24.4541C58.2382 24.544 58.2905 24.6338 58.3319 24.7229C58.3796 24.7655 58.4647 24.839 58.5468 24.9165C59.0179 25.3618 59.5936 25.6135 60.1366 25.6135C60.1468 25.6135 60.1561 25.6135 60.1663 25.6127C60.7179 25.6034 61.2983 25.3316 61.7577 24.8661L65.6194 20.9567C66.0241 20.5493 66.6116 20.3696 67.1796 20.4812C67.7475 20.5942 68.2194 20.9822 68.4304 21.512C69.8413 25.0505 69.328 29.0048 67.0585 32.0965C66.7507 32.5534 66.3514 32.9584 65.9968 33.317C65.6764 33.6407 65.396 33.9242 65.0061 34.2076L65.003 34.2107C64.9468 34.268 64.8858 34.3207 64.8218 34.3703C62.76 35.9378 60.428 36.754 57.8921 36.7966C56.8928 36.8114 55.9202 36.7037 54.9663 36.4621L53.4983 38.2464L42.5819 50.9746C42.5569 51.0048 42.5296 51.0335 42.5014 51.0621C41.3546 52.2223 39.8303 52.7961 38.2436 52.7961C36.471 52.7961 34.6194 52.0805 33.1264 50.6695C31.6835 49.3057 30.8366 47.4586 30.8046 45.6038C30.7772 44.0308 31.3452 42.5733 32.4046 41.5007C32.4311 41.4744 32.4577 41.4488 32.485 41.4248Z" fill="#5E5E5E"/>
<path d="M40.0186 48.7681L53.0467 33.4688C53.5092 32.9065 54.2874 32.6989 54.9772 32.9561C55.9256 33.3092 56.835 33.4695 57.8358 33.4486C59.5819 33.4192 61.1991 32.8624 62.6436 31.7921L62.6655 31.7704C62.7436 31.6914 62.8303 31.6194 62.9233 31.5566C63.1108 31.4304 63.2436 31.298 63.5522 30.9859C63.8061 30.7287 64.0952 30.4352 64.2233 30.2401C64.2405 30.2145 64.2585 30.1889 64.2772 30.1642C65.2858 28.8003 65.8061 27.1957 65.8069 25.5747L64.2069 27.1941C63.1092 28.3055 61.6952 28.9312 60.228 28.9568C58.7514 28.963 57.3256 28.403 56.1881 27.3281C55.8975 27.0532 55.546 26.7194 55.303 26.2779C55.2077 26.144 55.1389 26.0092 55.0897 25.8783L54.8225 25.3765C54.6999 25.1472 54.6342 24.8932 54.6288 24.633L54.6264 24.5238C54.6217 24.4975 54.61 24.4618 54.6022 24.4278C54.5631 24.2736 54.5053 24.0398 54.5014 23.754L54.4842 22.7665C54.4827 22.6968 54.4858 22.6279 54.4936 22.5582C54.6366 21.2618 55.1592 20.1489 56.0467 19.249L57.5881 17.6892C56.4999 17.7287 55.5717 17.9425 54.6811 18.356C54.3545 18.4923 54.0991 18.6573 53.7764 18.8656C53.678 18.9283 53.578 18.9934 53.4756 19.0577C53.3561 19.1731 53.2194 19.2699 53.071 19.345C53.0733 19.3473 53.035 19.3783 52.9952 19.4085C52.9124 19.4712 52.8124 19.5479 52.6952 19.6246L52.1827 20.1442C49.9108 22.3553 49.2483 25.663 50.4686 28.5982C50.746 29.2642 50.5577 30.0302 50.0022 30.4987L47.346 32.74L34.8194 43.8635C34.3045 44.408 34.2045 45.0771 34.2131 45.5464C34.2295 46.5044 34.7077 47.5189 35.4913 48.2601C36.9342 49.6239 38.91 49.8431 40.0186 48.7681Z" fill="#5E5E5E"/>
<path d="M50.7779 55.9373C50.7701 55.9373 50.7631 55.938 50.7553 55.938C50.1951 55.9435 49.674 56.1657 49.2889 56.563L42.5857 63.4665L59.0279 63.2311L52.2373 56.5313C51.8475 56.1479 51.3303 55.9373 50.7779 55.9373Z" fill="#5E5E5E"/>
<path d="M93.8578 49.0369C94.6925 48.3729 94.8594 47.1708 94.237 46.3047L93.332 45.045C92.6591 44.1084 91.3357 43.9334 90.4425 44.663L65.5217 65.0195L64.1584 66.1332C64.1287 66.1579 64.0944 66.1765 64.0631 66.1982C64.0397 66.2145 64.0178 66.2307 63.9936 66.2462C63.8733 66.3229 63.7467 66.3849 63.6115 66.4298C63.5889 66.4375 63.5662 66.4414 63.5436 66.4484C63.3975 66.4902 63.2475 66.5188 63.0928 66.5204L38.5756 66.8704C38.567 66.8704 38.5592 66.8704 38.5506 66.8704C38.3686 66.8704 38.1928 66.8379 38.0256 66.7845C37.9733 66.7682 37.9287 66.7388 37.878 66.7171C37.7647 66.6691 37.6561 66.6156 37.5561 66.5452C37.5381 66.5328 37.5162 66.5281 37.499 66.515L9.03578 44.6276C8.26217 44.0327 7.17218 44.083 6.45664 44.7466L4.92252 46.1693C4.03152 46.9956 4.07724 48.419 5.01943 49.1865L47.5704 83.8452C48.2991 84.4387 49.3429 84.4448 50.0785 83.8597L93.8578 49.0369Z" fill="#5E5E5E"/>
<path d="M51.7921 86.8024L49.878 88.325L49.8757 88.3266C49.564 88.5752 49.1843 88.6983 48.8054 88.6983C48.714 88.6983 48.6226 88.6898 48.5319 88.6759C48.5265 88.6751 48.521 88.6751 48.5163 88.6743C48.4343 88.6604 48.353 88.6379 48.2733 88.6124C48.2601 88.6085 48.2468 88.6069 48.2335 88.6023C48.1499 88.5728 48.0694 88.5357 47.9905 88.4931C47.9827 88.4884 47.9733 88.4861 47.9655 88.4815C47.8796 88.4335 47.7968 88.3777 47.7187 88.3142L6.76966 55.0457C6.03239 54.4467 4.9755 54.4489 4.2408 55.0511L3.3817 55.7551C2.4129 56.5491 2.40404 58.0281 3.36327 58.8336L48.2351 96.5149C48.9658 97.1286 50.0282 97.1405 50.7726 96.5436L96.3922 59.9582C97.4077 59.1437 97.3869 57.5916 96.3499 56.8047L94.09 55.0898C93.3618 54.5372 92.3516 54.5487 91.6362 55.1176L51.7921 86.8024Z" fill="#5E5E5E"/>
<path d="M40.0184 48.7679L53.0465 33.4685C53.509 32.9063 54.2871 32.6987 54.977 32.9558C55.9254 33.309 56.8348 33.4693 57.8356 33.4484C59.5817 33.4189 61.1988 32.8621 62.6434 31.7918L62.6652 31.7701C62.7434 31.6911 62.8301 31.6191 62.9231 31.5564C63.1106 31.4301 63.2434 31.2977 63.552 30.9856C63.8059 30.7285 64.0949 30.435 64.2231 30.2398C64.2402 30.2142 64.2582 30.1887 64.277 30.1639C65.2856 28.8001 65.8059 27.1954 65.8067 25.5745L64.2066 27.1939C63.109 28.3052 61.6949 28.931 60.2277 28.9565C58.7512 28.9627 57.3254 28.4028 56.1879 27.3278C55.8973 27.0529 55.5457 26.7191 55.3027 26.2777C55.2074 26.1437 55.1387 26.009 55.0895 25.8781L54.8223 25.3762C54.6996 25.147 54.634 24.893 54.6285 24.6327L54.6262 24.5235C54.6215 24.4972 54.6098 24.4616 54.602 24.4275C54.5629 24.2734 54.5051 24.0395 54.5012 23.7537L54.484 22.7663C54.4824 22.6966 54.4856 22.6277 54.4934 22.558C54.6363 21.2615 55.159 20.1486 56.0465 19.2487L57.5879 17.689C56.4996 17.7285 55.5715 17.9422 54.6809 18.3558C54.3543 18.4921 54.0988 18.657 53.7762 18.8654C53.6777 18.9281 53.5777 18.9931 53.4754 19.0574C53.3559 19.1728 53.2192 19.2696 53.0707 19.3448C53.0731 19.3471 53.0348 19.3781 52.9949 19.4083C52.9121 19.471 52.8121 19.5477 52.6949 19.6243L52.1824 20.144C49.9106 22.3551 49.2481 25.6628 50.4684 28.598C50.7457 29.264 50.5574 30.0299 50.002 30.4985L47.3457 32.7398L34.8191 43.8633C34.3043 44.4077 34.2043 45.0768 34.2129 45.5462C34.2293 46.5042 34.7074 47.5187 35.491 48.2599C36.934 49.6237 38.9098 49.8428 40.0184 48.7679Z" fill="#67B1E2"/>
</svg>
